<svg width="21" height="19" viewBox="0 0 21 19" fill="none" xmlns="http://www.w3.org/2000/svg">
<path d="M11.3107 12.2746L13.7388 9.72444C13.8028 9.65397 13.8808 9.59767 13.9678 9.55914C14.0548 9.52061 14.1489 9.5007 14.2441 9.5007C14.3393 9.5007 14.4334 9.52061 14.5204 9.55914C14.6074 9.59767 14.6854 9.65397 14.7494 9.72444C15.0303 10.0237 15.0303 10.5119 14.7494 10.8125L12.19 13.5031C11.9992 13.7163 11.7656 13.8869 11.5044 14.0037C11.2431 14.1204 10.9602 14.1808 10.6741 14.1808C10.388 14.1808 10.1051 14.1204 9.84384 14.0037C9.58262 13.8869 9.34898 13.7163 9.15816 13.5031L6.59879 10.8125C6.46367 10.6635 6.38883 10.4696 6.38883 10.2685C6.38883 10.0673 6.46367 9.87342 6.59879 9.72444C6.66276 9.65397 6.74076 9.59767 6.82779 9.55914C6.91481 9.52061 7.00893 9.5007 7.1041 9.5007C7.19927 9.5007 7.29339 9.52061 7.38041 9.55914C7.46744 9.59767 7.54544 9.65397 7.60941 9.72444L9.99816 12.2326V1.04225C9.99816 0.639312 10.2922 0.3125 10.6544 0.3125C11.0167 0.3125 11.3107 0.639312 11.3107 1.04225V12.2746ZM4.98441 6.875C4.68224 6.87511 4.38955 6.98054 4.15671 7.17313C3.92387 7.36573 3.76543 7.63346 3.70866 7.93025L2.1481 15.8053C2.13147 15.8892 2.12316 15.975 2.12316 16.0625C2.12316 16.787 2.70591 17.375 3.42254 17.375H17.8863C17.972 17.375 18.0569 17.3662 18.1409 17.3487C18.4805 17.2785 18.7785 17.0768 18.9698 16.7876C19.1611 16.4984 19.2302 16.1452 19.162 15.8053L17.6002 7.93025C17.5435 7.6339 17.3854 7.36651 17.1531 7.17397C16.9208 6.98142 16.6288 6.87572 16.327 6.875H4.98441ZM7.37316 5.5625V6.875H13.9357V5.5625H16.331C17.5726 5.5625 18.641 6.44581 18.8851 7.673L20.447 15.548C20.5228 15.9271 20.5139 16.3182 20.421 16.6934C20.3281 17.0687 20.1535 17.4187 19.9096 17.7187C19.6657 18.0186 19.3586 18.2609 19.0102 18.4284C18.6618 18.5959 18.2807 18.6844 17.8942 18.6875H3.41466C3.0275 18.6863 2.64545 18.599 2.2961 18.4321C1.94675 18.2653 1.63882 18.0229 1.39457 17.7225C1.15031 17.4221 0.975816 17.0712 0.88369 16.6951C0.791563 16.3191 0.784104 15.9273 0.86185 15.548L2.42372 7.673C2.66654 6.44581 3.73622 5.5625 4.97654 5.5625H7.37316Z" fill="white"/>
</svg>
