<svg width="20" height="19" viewBox="0 0 20 19" fill="none" xmlns="http://www.w3.org/2000/svg">
<path d="M0.999878 3.5V14.3C0.999878 15.4201 0.999878 15.9798 1.21786 16.4076C1.40961 16.7839 1.71535 17.0905 2.09167 17.2822C2.51908 17.5 3.07887 17.5 4.19679 17.5H15.803C16.9209 17.5 17.4799 17.5 17.9073 17.2822C18.2836 17.0905 18.5904 16.7841 18.7821 16.4078C19.0001 15.98 19.0001 15.4199 19.0001 14.2998L19.0001 6.69978C19.0001 5.57967 19.0001 5.01962 18.7821 4.5918C18.5904 4.21547 18.2838 3.90973 17.9075 3.71799C17.4796 3.5 16.92 3.5 15.7999 3.5H9.99988M0.999878 3.5H9.99988M0.999878 3.5C0.999878 2.39543 1.89531 1.5 2.99988 1.5H6.67439C7.16358 1.5 7.40874 1.5 7.63892 1.55526C7.84299 1.60425 8.03773 1.68526 8.21667 1.79492C8.41844 1.91857 8.59169 2.09182 8.93738 2.4375L9.99988 3.5" stroke="white" stroke-width="2" stroke-linecap="round" stroke-linejoin="round"/>
</svg>
