<svg width="59" height="47" viewBox="0 0 59 47" fill="none" xmlns="http://www.w3.org/2000/svg">
<g clip-path="url(#clip0_280_472)">
<path d="M7.34854 15.4742V21.5362C7.34854 21.5465 7.21139 21.512 7.16228 21.6006C5.9586 23.7493 4.75769 25.9829 3.73006 28.1998C4.34812 33.2424 1.49412 41.6304 8.2696 43.2251C22.1041 43.5404 35.9859 43.2652 49.838 43.3641C57.7616 42.7308 54.9363 33.5231 55.4154 28.1354C55.3709 27.8286 55.2467 27.588 55.117 27.3166C54.7297 26.5052 51.8256 21.6463 51.8256 21.3031V15.4742C52.0434 15.4294 51.9748 15.5012 52.0332 15.5945C54.27 19.1179 55.9621 23.3091 58.211 26.8335C58.211 30.5583 58.5566 34.6581 58.3157 38.3746C58.0507 42.4697 54.624 45.9036 50.5784 46.2552H8.68751C4.61499 45.9969 1.11883 42.4846 0.858453 38.3746C0.62309 34.6758 0.962235 30.6171 0.959455 26.9043C3.03695 23.3585 4.78642 19.6048 6.86854 16.0646C6.95287 15.9209 7.05572 15.7213 7.14097 15.5964C7.19749 15.5134 7.12429 15.4248 7.34761 15.4742H7.34854Z" fill="#CCCDCC"/>
<path d="M25.662 32.0129C28.554 34.9236 33.7236 33.8511 34.8939 29.8148C35.2303 28.6536 34.8411 26.9992 36.3293 26.6896L48.0733 26.6644C49.7023 26.9059 49.7894 29.0584 48.254 29.5518L38.0176 29.6012C37.9268 29.6469 37.8916 29.7224 37.8563 29.812C37.6089 30.4396 37.5153 31.182 37.2012 31.8572C36.4025 33.5788 34.6604 35.2127 32.9202 35.942C27.8099 38.0815 22.2538 34.9637 21.2336 29.5676L11.189 29.5592C9.52015 29.4454 9.35892 27.1195 10.936 26.6858L22.6866 26.6606C23.4047 26.6681 23.9459 27.3377 24.0274 28.0157C24.2442 29.8306 24.3156 30.6569 25.6629 32.012L25.662 32.0129Z" fill="#CCCDCC"/>
<path d="M32.0575 19.3301C31.2374 18.5374 30.396 17.7167 29.5546 16.9725C29.3156 17.0154 26.6432 19.9876 26.115 20.4185C24.6287 21.6309 22.9506 20.1835 23.8012 18.5551L27.4503 14.8545C26.8016 14.1066 26.0844 13.339 25.3858 12.6153C24.8159 12.025 23.64 11.2705 23.564 10.3901C23.4445 8.99768 24.7436 8.33925 25.875 8.99861L29.5546 12.6694C30.8945 11.5428 32.0482 10.1495 33.3566 8.96131C34.7437 8.18817 36.2106 9.58056 35.3924 11.0103L31.8063 14.6782L31.7257 14.8545L35.3748 18.5551C36.0623 19.6136 35.2302 21.0247 33.9978 20.8745C33.1203 20.7673 32.6255 19.8794 32.0575 19.3292V19.3301Z" fill="#9A999A"/>
<path d="M47.5395 7.94161C48.3485 7.79146 49.2223 8.19994 49.327 9.08313C49.5244 10.7395 49.1806 12.7884 49.3186 14.4886C48.9174 16.0321 46.6342 15.9155 46.4517 14.3086C46.2654 12.6644 46.587 10.6798 46.4563 8.99733C46.5953 8.50211 47.0252 8.03673 47.5386 7.94161H47.5395Z" fill="#9A999A"/>
<path d="M12.32 15.1615C11.5805 15.8684 10.0831 15.611 9.87182 14.5665C9.73282 13.882 9.74301 9.73741 9.85699 8.99785C10.0757 7.57188 12.3672 7.55416 12.7027 8.91951C12.6081 10.6281 12.9037 12.6332 12.724 14.3072C12.6915 14.6094 12.5396 14.9526 12.3209 15.1606L12.32 15.1615Z" fill="#9A999A"/>
<path d="M32.7037 0.492669C33.6099 1.40383 32.9918 2.86524 31.74 3.04617C30.9282 3.16368 27.7898 3.16555 27.0633 2.95291C25.6771 2.54629 25.7558 0.324798 27.2301 0.0925764C28.0826 -0.0417204 30.956 -0.010944 31.8576 0.0869807C32.1736 0.121487 32.4803 0.268841 32.7046 0.493601L32.7037 0.492669Z" fill="#9A999A"/>
<path d="M36.4205 0.10798C37.0904 -0.00579914 40.657 -0.0225862 41.288 0.107047C42.0163 0.256266 42.4787 1.15344 42.3342 1.86223C42.1442 2.80044 41.4038 3.01028 40.5708 3.0737C39.7378 3.13712 36.9672 3.17815 36.2592 2.92914C34.9026 2.45164 35.0481 0.340201 36.4195 0.10798H36.4205Z" fill="#9A999A"/>
<path d="M17.8852 0.106401L22.9168 0.128784C24.4717 0.91871 24.0881 2.86415 22.3006 3.0572C21.349 3.15979 19.4716 3.15512 18.5098 3.07212C16.5963 2.90798 16.146 0.887934 17.8862 0.105469L17.8852 0.106401Z" fill="#9A999A"/>
<path d="M46.4524 3.06905C46.4107 3.02895 45.7213 3.05133 45.3349 2.8415C44.2368 2.24276 44.3378 0.52581 45.4572 0.157426C45.838 0.0324558 47.8089 0.0231297 48.2528 0.0921433C48.6967 0.161157 49.2156 0.654511 49.3027 1.08724C49.4129 1.63283 49.4722 3.33951 49.3193 3.85898C48.9682 5.0518 47.4578 5.31666 46.7304 4.32902C46.3625 3.83007 46.4996 3.11569 46.4524 3.06999V3.06905Z" fill="#9A999A"/>
<path d="M12.7226 3.07009C12.6902 3.10179 12.7384 3.70613 12.6513 3.97659C12.2677 5.16194 10.3588 5.23655 9.92239 4.06892C9.79915 3.7397 9.79173 1.58256 9.85567 1.16289C9.92517 0.708701 10.4747 0.164053 10.9204 0.089444C11.3661 0.0148347 12.8274 0.0316218 13.3296 0.0801178C14.8474 0.227471 15.0818 2.36503 13.716 2.90315C13.4769 2.99734 12.7597 3.03465 12.7236 3.07009H12.7226Z" fill="#9A999A"/>
<path d="M46.8534 22.9966C46.7246 22.8679 46.4865 22.4147 46.4578 22.2291C46.3883 21.7852 46.3984 19.905 46.5143 19.5003C46.8886 18.1927 48.9513 18.2515 49.3025 19.5534C49.4711 20.1792 49.4989 21.8691 49.2793 22.4697C48.9355 23.4117 47.5614 23.7054 46.8543 22.9966H46.8534Z" fill="#9A999A"/>
<path d="M12.318 18.9574C12.5005 19.1318 12.6757 19.4732 12.7127 19.7259C12.7785 20.182 12.7804 22.0509 12.6599 22.4538C12.2772 23.7334 10.1302 23.6895 9.86984 22.4007C9.78737 21.995 9.78737 19.9581 9.86984 19.5524C10.0811 18.5079 11.5785 18.2505 12.318 18.9574Z" fill="#9A999A"/>
</g>
<defs>
<clipPath id="clip0_280_472">
<rect width="57.6268" height="46.2531" fill="white" transform="translate(0.775024 0.000976562)"/>
</clipPath>
</defs>
</svg>
