<?xml version="1.0" encoding="UTF-8"?>
<svg id="Layer_1" xmlns="http://www.w3.org/2000/svg" version="1.1" viewBox="0 0 94.53 94.53">
  <!-- Generator: Adobe Illustrator 29.5.1, SVG Export Plug-In . SVG Version: 2.1.0 Build 141)  -->
  <defs>
    <style>
      .st0 {
        fill: #005eb8;
      }
    </style>
  </defs>
  <path class="st0" d="M47.21.51c.11-.02.2,0,.29.06l32.4,18.75c2.29,1.66,3.58,4.16,3.75,6.99v34.42c-.55,7.17-3.94,13.87-9.82,18.04-7.14,5.06-15.2,9.32-22.45,14.26-2.33,1.21-5.1,1.31-7.53.33-7.22-4.52-14.59-8.91-21.68-13.64-7.98-5.32-11.13-11.91-11.25-21.48-.13-10.77.09-21.63,0-32.43.26-2.8,1.77-5.31,4.15-6.79L47.21.51ZM47.11,6.18l-29.46,17.01c-1.06.71-1.72,1.95-1.86,3.21v34.13c.6,6.54,3.62,11.06,8.97,14.61,7.06,4.69,14.39,9.04,21.54,13.58.6.17,1.46.17,2.06-.02l22.89-14.51c4.41-3.13,7.2-8.46,7.53-13.86.32-5.29-.1-11.09-.1-16.41,0-2.82-.01-5.64,0-8.46s.29-5.8.11-8.65c-.09-1.44-.72-2.81-1.94-3.63L47.64,6.31c-.17-.1-.32-.18-.53-.13Z"/>
  <path class="st0" d="M40.37,77.59l-7.74-4.65c-.05-4.47,0-8.94-.02-13.41-.02-6.88,0-13.81,0-20.68,0-2.97,0-5.94,0-8.91l-3.18,1.69v39.39c-.55-.14-1.16-.57-1.62-.91-3.67-2.67-5.99-7.13-6.24-11.67l.03-28.23c.19-1.14.72-2.23,1.63-2.95l17.15-9.97v60.29Z"/>
  <path class="st0" d="M64.85,71.03V31.63l-3.18-1.69v43.03l-7.76,4.63V17.31l16.75,9.67c1.45.98,1.96,2.4,2.06,4.11-.35,8.96.45,18.25,0,27.17-.24,4.74-2.65,9.45-6.6,12.1-.38.25-.82.61-1.27.67Z"/>
  <path class="st0" d="M50.99,79.36c-1.24.63-2.43,1.72-3.91,1.72s-2.57-1.1-3.77-1.69l-.06-63.63.1-.2,3.74-2.14,3.76,2.1.16.24-.02,63.6Z"/>
</svg>