<svg width="18" height="21" viewBox="0 0 18 21" fill="none" xmlns="http://www.w3.org/2000/svg">
<path d="M6.99902 14.5H1.99902V19.5M10.999 6.5H15.999V1.5M1.58203 7.5034C2.14272 6.11566 3.08146 4.91304 4.29157 4.03223C5.50169 3.15141 6.93588 2.62752 8.42878 2.52051C9.92168 2.4135 11.4138 2.7274 12.7371 3.42661C14.0605 4.12582 15.1603 5.18254 15.9131 6.47612M16.4166 13.4971C15.8559 14.8848 14.9171 16.0874 13.707 16.9682C12.4969 17.8491 11.0642 18.3723 9.57129 18.4793C8.07839 18.5863 6.58509 18.2725 5.26172 17.5732C3.93835 16.874 2.83785 15.8175 2.08496 14.5239" stroke="white" stroke-width="2" stroke-linecap="round" stroke-linejoin="round"/>
</svg>
