<svg width="24" height="25" viewBox="0 0 24 25" fill="none" xmlns="http://www.w3.org/2000/svg">
<path d="M7 10.214V11.5M7 10.214C6.45643 10.2178 5.92006 10.0897 5.4369 9.84061C4.95374 9.59154 4.53822 9.22897 4.226 8.784M7 10.214C7.54357 10.2178 8.07994 10.0887 8.5631 9.83961C9.04626 9.59054 9.46178 9.22797 9.774 8.783M7 3.785C8.157 3.785 9.176 4.353 9.774 5.215M4.226 5.217C4.53822 4.77203 4.95374 4.40946 5.4369 4.16039C5.92006 3.91132 6.45643 3.78319 7 3.787V2.5M4.226 5.217L3 4.43M4.226 5.217C3.86165 5.74019 3.66633 6.36244 3.66633 7C3.66633 7.63756 3.86165 8.25981 4.226 8.783M11 4.429L9.774 5.217C10.1383 5.74019 10.3337 6.36144 10.3337 6.999C10.3337 7.63656 10.1383 8.25881 9.774 8.782L11 9.57M3 9.57L4.226 8.782" stroke="white" stroke-width="1.5" stroke-linecap="round" stroke-linejoin="round"/>
<path d="M13 2.5H13.273C16.533 2.5 18.165 2.5 19.297 3.298C19.621 3.526 19.909 3.798 20.152 4.103C21 5.169 21 6.703 21 9.773V12.318C21 15.281 21 16.763 20.531 17.946C19.777 19.849 18.183 21.349 16.161 22.059C14.904 22.5 13.331 22.5 10.181 22.5C8.383 22.5 7.483 22.5 6.765 22.248C5.61 21.842 4.699 20.985 4.268 19.898C4 19.222 4 18.375 4 16.682V13.5" stroke="white" stroke-width="1.5" stroke-linecap="round" stroke-linejoin="round"/>
<path d="M21 12.5C21 13.384 20.6488 14.2317 20.0238 14.8568C19.3987 15.4818 18.551 15.833 17.667 15.833C17.001 15.833 16.216 15.717 15.569 15.89C15.2864 15.966 15.0288 16.1149 14.8218 16.3218C14.6149 16.5288 14.466 16.7864 14.39 17.069C14.217 17.716 14.333 18.501 14.333 19.167C14.333 19.6047 14.2468 20.0381 14.0793 20.4425C13.9118 20.8469 13.6663 21.2143 13.3568 21.5238C13.0473 21.8333 12.6799 22.0788 12.2755 22.2463C11.8711 22.4138 11.4377 22.5 11 22.5" stroke="white" stroke-width="1.5" stroke-linecap="round" stroke-linejoin="round"/>
</svg>
